HIERARCHY
ROOT Hips
{
 OFFSET 0.000000 0.000000 0.000000
 CHANNELS 6 Xposition Yposition Zposition Yrotation Xrotation Zrotation
 JOINT Chest
 {
  OFFSET 0.000000 9.585900 0.002600
  CHANNELS 3 Yrotation Xrotation Zrotation
  JOINT Chest2
  {
   OFFSET 0.000000 9.601200 -0.005300
   CHANNELS 3 Yrotation Xrotation Zrotation
   JOINT Chest3
   {
    OFFSET 0.000000 9.561800 0.000000
    CHANNELS 3 Yrotation Xrotation Zrotation
    JOINT Chest4
    {
     OFFSET 0.000000 9.552100 0.000000
     CHANNELS 3 Yrotation Xrotation Zrotation
     JOINT Neck
     {
      OFFSET 0.000000 14.453000 0.000000
      CHANNELS 3 Yrotation Xrotation Zrotation
      JOINT Head
      {
       OFFSET 0.000000 8.936500 -0.011300
       CHANNELS 3 Yrotation Xrotation Zrotation
       End Site
       {
        OFFSET 0.000000 17.073600 -0.006000
       }
      }
     }
     JOINT RightCollar
     {
      OFFSET -2.921100 9.558500 0.000000
      CHANNELS 3 Yrotation Xrotation Zrotation
      JOINT RightShoulder
      {
       OFFSET -13.519700 0.000000 0.000000
       CHANNELS 3 Yrotation Xrotation Zrotation
       JOINT RightElbow
       {
        OFFSET 0.000000 -29.696600 0.000000
        CHANNELS 3 Yrotation Xrotation Zrotation
        JOINT RightWrist
        {
         OFFSET 0.000000 -24.004700 0.000000
         CHANNELS 3 Yrotation Xrotation Zrotation
         End Site
         {
          OFFSET 0.000000 -17.728500 0.000000
         }
        }
       }
      }
     }
     JOINT LeftCollar
     {
      OFFSET 2.921100 9.558500 0.000000
      CHANNELS 3 Yrotation Xrotation Zrotation
      JOINT LeftShoulder
      {
       OFFSET 13.519700 0.000000 0.000000
       CHANNELS 3 Yrotation Xrotation Zrotation
       JOINT LeftElbow
       {
        OFFSET 0.000000 -29.696600 0.000000
        CHANNELS 3 Yrotation Xrotation Zrotation
        JOINT LeftWrist
        {
         OFFSET 0.000000 -24.004700 0.000000
         CHANNELS 3 Yrotation Xrotation Zrotation
         End Site
         {
          OFFSET 0.000000 -17.728500 0.000000
         }
        }
       }
      }
     }
    }
   }
  }
 }
 JOINT RightHip
 {
  OFFSET -7.771700 -0.012900 -0.001300
  CHANNELS 3 Yrotation Xrotation Zrotation
  JOINT RightKnee
  {
   OFFSET 0.000000 -40.869800 0.001200
   CHANNELS 3 Yrotation Xrotation Zrotation
   JOINT RightAnkle
   {
    OFFSET 0.000000 -39.717900 0.002100
    CHANNELS 3 Yrotation Xrotation Zrotation
    JOINT RightToe
    {
     OFFSET 0.000000 -4.965400 11.033500
     CHANNELS 3 Yrotation Xrotation Zrotation
     End Site
     {
      OFFSET 0.000000 -1.423100 5.872300
     }
    }
   }
  }
 }
 JOINT LeftHip
 {
  OFFSET 7.771700 -0.012900 -0.001300
  CHANNELS 3 Yrotation Xrotation Zrotation
  JOINT LeftKnee
  {
   OFFSET 0.000000 -40.869800 0.001200
   CHANNELS 3 Yrotation Xrotation Zrotation
   JOINT LeftAnkle
   {
    OFFSET 0.000000 -39.717900 0.002100
    CHANNELS 3 Yrotation Xrotation Zrotation
    JOINT LeftToe
    {
     OFFSET 0.000000 -4.965400 11.033500
     CHANNELS 3 Yrotation Xrotation Zrotation
     End Site
     {
      OFFSET 0.000000 -1.423100 5.872300
     }
    }
   }
  }
 }
}
MOTION
Frames: 9
Frame Time: 0.008333
-6.973921 53.983653 29.287394 172.547381 -38.485723 -3.531440 3.242929 21.860106 3.102656 0.368499 3.021937 0.367149 0.573649 4.866750 0.568959 2.693431 18.506318 2.677676 1.043015 14.453058 -0.776638 2.338647 -8.876567 -1.821518 -5.736776 -0.432660 -2.532296 -8.146039 -1.409545 3.754907 -173.545850 -77.749085 -163.181839 1.556803 4.504108 -9.395173 -4.147709 0.721153 0.054320 12.519082 -1.394902 0.212436 122.415759 -79.624344 -145.949830 -4.749743 -3.246583 20.375900 -2.935228 -43.061663 4.646033 -121.952505 85.816078 -116.627017 0.632704 -9.431899 -2.583027 -0.014287 0.189907 0.071864 -3.788940 -39.024629 6.244694 77.761031 81.458311 67.903865 -5.184654 -11.097754 7.906086 -0.014615 0.085107 -0.001767
-6.996887 53.913286 29.270202 172.567221 -38.463779 -3.458833 3.234266 21.881462 3.063351 0.366350 3.022038 0.368040 0.567878 4.867439 0.569462 2.683361 18.506718 2.682311 1.036137 14.432548 -0.791130 2.318051 -8.916724 -1.846067 -5.717400 -0.442502 -2.539230 -8.105725 -1.380694 3.743612 -173.623475 -77.760286 -163.157431 1.576147 4.521660 -9.390162 -4.161977 0.697561 0.039114 12.498811 -1.429357 0.206059 122.613346 -79.609913 -146.145258 -4.742719 -3.195977 20.340419 -2.924136 -42.958701 4.428319 -122.222778 86.014372 -116.833041 0.640023 -9.510109 -2.713265 -0.007960 0.166232 0.066413 -3.735796 -39.063883 6.160926 77.881355 81.474861 67.991402 -5.238720 -11.157535 7.927974 0.014377 0.153497 0.016947
-7.033338 53.830803 29.251747 172.561462 -38.440854 -3.289766 3.204575 21.896135 2.925632 0.372530 3.031850 0.378276 0.600740 4.906428 0.609533 2.616208 18.469159 2.646255 1.029541 14.412300 -0.809720 2.293682 -8.957489 -1.869079 -5.698427 -0.449073 -2.548157 -8.104329 -1.385734 3.733019 -173.697990 -77.766228 -163.112071 1.582754 4.581285 -9.390718 -4.174128 0.669805 0.022858 12.481397 -1.457226 0.200191 122.670136 -79.591626 -146.205106 -4.750473 -3.160337 20.316993 -2.831823 -42.890405 4.122047 -122.369016 86.147063 -116.946395 0.663219 -9.535395 -2.822197 0.005285 0.091218 0.069420 -3.585418 -39.111987 5.962956 77.990158 81.479744 68.073292 -5.346520 -11.301027 7.931112 0.074718 0.318406 0.061157
-7.067662 53.739305 29.238206 172.545095 -38.394396 -3.123889 3.194186 21.895316 2.808953 0.369401 3.031573 0.379236 0.595637 4.906072 0.611036 2.597525 18.469662 2.649892 1.035379 14.406896 -0.807782 2.253075 -9.016458 -1.912514 -5.682982 -0.450479 -2.560177 -8.090610 -1.397683 3.725737 -173.795774 -77.843235 -163.024420 1.604066 4.574414 -9.441711 -4.183461 0.635600 0.002075 12.464138 -1.492766 0.211033 122.508309 -79.581590 -146.041581 -4.712905 -3.234235 20.324386 -2.753371 -42.864191 3.850530 -122.329405 86.231574 -116.898606 0.708670 -9.558535 -2.911065 0.008917 0.021799 0.076823 -3.387068 -39.181046 5.766321 77.995552 81.510155 68.096883 -5.534512 -11.478559 7.929848 0.219560 0.518265 0.125555
-7.104426 53.643049 29.230015 172.530718 -38.318880 -2.934112 3.183737 21.874169 2.678033 0.357172 3.021238 0.370821 0.590614 4.905666 0.612499 2.579099 18.470114 2.653475 1.015571 14.382556 -0.825939 2.223508 -9.061660 -1.939662 -5.674311 -0.446646 -2.573918 -8.072073 -1.414829 3.721038 -173.896126 -77.930069 -162.931383 1.621189 4.552876 -9.513579 -4.197146 0.604496 -0.020584 12.440726 -1.525103 0.225729 122.401535 -79.544978 -145.952432 -4.703036 -3.233209 20.369267 -2.655473 -42.899534 3.571333 -122.263395 86.261051 -116.844417 0.721856 -9.585213 -2.932330 0.056302 -0.023073 0.053800 -3.192791 -39.281494 5.537157 78.061335 81.505337 68.144096 -5.662612 -11.627585 7.956286 0.292357 0.693422 0.152125
-7.134651 53.550754 29.223495 172.516926 -38.255798 -2.761940 3.175681 21.850930 2.556093 0.343003 3.014132 0.361928 0.598555 4.912481 0.623425 2.551022 18.463587 2.646698 1.003866 14.364412 -0.836459 2.184410 -9.109330 -1.964456 -5.666609 -0.431987 -2.582044 -8.050692 -1.430350 3.719136 -173.996805 -77.997455 -162.844294 1.638906 4.502318 -9.569689 -4.204575 0.579190 -0.035951 12.405540 -1.556845 0.245456 122.265789 -79.466432 -145.848642 -4.694848 -3.285236 20.475234 -2.555871 -42.960021 3.334382 -122.242611 86.235596 -116.841573 0.734180 -9.546513 -2.948007 0.118684 -0.095068 0.052613 -3.005012 -39.366784 5.329056 78.114679 81.508775 68.181968 -5.765861 -11.779062 7.970935 0.334975 0.859622 0.195097
-7.155096 53.464771 29.219577 172.519063 -38.202138 -2.630294 3.168847 21.831460 2.465874 0.341456 3.014503 0.363110 0.583216 4.906254 0.617119 2.517617 18.450016 2.628543 1.003294 14.358702 -0.837936 2.147754 -9.158213 -1.983743 -5.660618 -0.420162 -2.583069 -8.009942 -1.418542 3.727078 -174.105002 -78.063057 -162.754262 1.661959 4.447281 -9.625344 -4.212558 0.581043 -0.029238 12.373033 -1.627378 0.262306 121.933709 -79.462275 -145.486372 -4.676087 -3.407443 20.536432 -2.460195 -43.018691 3.148002 -122.278778 86.212770 -116.889193 0.712717 -9.526703 -2.959244 0.147493 -0.178584 0.069029 -2.850368 -39.441353 5.159256 78.169604 81.518761 68.232286 -5.865545 -11.926847 8.004606 0.378090 1.018953 0.216443
-7.170453 53.385289 29.218194 172.528607 -38.152120 -2.502295 3.154934 21.811501 2.368702 0.352412 3.022473 0.374453 0.533258 4.881437 0.586968 2.551974 18.471371 2.662597 0.962675 14.330237 -0.861511 2.106258 -9.207571 -2.002370 -5.689058 -0.432430 -2.603392 -7.968931 -1.399054 3.745977 -174.226856 -78.122405 -162.652729 1.633891 4.462257 -9.736482 -4.245421 0.557682 -0.047137 12.355103 -1.643329 0.258045 121.957214 -79.428509 -145.525494 -4.688002 -3.447269 20.582804 -2.348255 -43.106850 2.971981 -122.570871 86.150652 -117.188320 0.659481 -9.476115 -2.931387 0.201104 -0.285370 0.068967 -2.695845 -39.513363 4.987432 78.211351 81.527029 68.267885 -5.928066 -12.032936 8.050042 0.387787 1.135775 0.221951
-7.176918 53.315733 29.215248 172.540501 -38.139126 -2.394106 3.146470 21.822912 2.287245 0.352255 3.023688 0.376173 0.537649 4.888267 0.594165 2.604298 18.496297 2.707288 0.874121 14.277874 -0.896060 2.064739 -9.234565 -2.011554 -5.754178 -0.449907 -2.628084 -7.954960 -1.393978 3.770563 -174.403640 -78.125178 -162.507606 1.584120 4.484485 -9.795728 -4.307882 0.520862 -0.047795 12.293029 -1.688111 0.237152 121.951001 -79.408283 -145.514055 -4.680841 -3.436122 20.607713 -2.227218 -43.160012 2.830676 -122.659981 86.048209 -117.264728 0.573172 -9.443101 -2.900928 0.306175 -0.372905 0.076685 -2.581818 -39.543896 4.846108 78.286893 81.525166 68.316827 -5.927521 -12.118949 8.095707 0.344759 1.223489 0.206274
